<svg xmlns="http://www.w3.org/2000/svg" viewBox="0 0 1600 1000" role="img" aria-label="BlueFX Dashboard"><defs><linearGradient id="bg" x1="0" x2="1" y1="0" y2="1"><stop stop-color="#020617"/><stop offset=".55" stop-color="#0f172a"/><stop offset="1" stop-color="#1e1b4b"/></linearGradient><linearGradient id="card" x1="0" x2="1"><stop stop-color="#38bdf8"/><stop offset="1" stop-color="#8b5cf6"/></linearGradient></defs><rect width="1600" height="1000" fill="url(#bg)"/><rect x="90" y="80" width="1420" height="840" rx="42" fill="#0f172a" stroke="#334155" stroke-width="3"/><rect x="130" y="130" width="270" height="740" rx="28" fill="#020617" stroke="#1e293b"/><text x="170" y="205" fill="#e0f2fe" font-size="34" font-family="Inter,Arial" font-weight="700">AI Media</text><text x="170" y="250" fill="#c4b5fd" font-size="34" font-family="Inter,Arial" font-weight="700">Machine</text><rect x="455" y="130" width="965" height="120" rx="28" fill="#111827" stroke="#334155"/><text x="500" y="205" fill="white" font-size="46" font-family="Inter,Arial" font-weight="800">BlueFX Dashboard</text><text x="500" y="315" fill="#cbd5e1" font-size="28" font-family="Inter,Arial">Campaign workspace with modules for ad research, scripts, video, avatars, thumbnails, ebooks, and keyword planning.</text><g opacity=".95"><rect x="455" y="380" width="290" height="180" rx="26" fill="url(#card)"/><rect x="780" y="380" width="290" height="180" rx="26" fill="#172554" stroke="#38bdf8"/><rect x="1105" y="380" width="290" height="180" rx="26" fill="#2e1065" stroke="#8b5cf6"/><rect x="455" y="600" width="940" height="210" rx="28" fill="#020617" stroke="#334155"/></g><text x="500" y="485" fill="white" font-size="32" font-family="Inter,Arial" font-weight="700">Research</text><text x="825" y="485" fill="white" font-size="32" font-family="Inter,Arial" font-weight="700">Create</text><text x="1150" y="485" fill="white" font-size="32" font-family="Inter,Arial" font-weight="700">Publish</text><text x="500" y="690" fill="#e2e8f0" font-size="30" font-family="Inter,Arial">Editorial review gallery image</text><text x="500" y="745" fill="#94a3b8" font-size="24" font-family="Inter,Arial">Use this visual slot for verified product media during refreshes.</text></svg>